<svg width="38.416016" height="33.876465" viewBox="0 0 38.416 33.8765" fill="none" xmlns="http://www.w3.org/2000/svg" xmlns:xlink="http://www.w3.org/1999/xlink">
	<desc>
			Created with Pixso.
	</desc>
	<defs/>
	<path id="Vector" d="M3.61 12.33L5.76 12.33L5.76 26.44L4.43 26.44C3.97 26.44 3.59 26.82 3.59 27.28C3.59 27.74 3.97 28.12 4.43 28.12L33.97 28.12C34.43 28.12 34.81 27.74 34.81 27.28C34.81 26.82 34.43 26.44 33.97 26.44L32.08 26.44L32.08 12.33L34.81 12.33C35.28 12.33 35.65 11.95 35.65 11.49C35.65 11.02 35.28 10.65 34.81 10.65L3.61 10.65C3.15 10.65 2.77 11.02 2.77 11.49C2.77 11.95 3.15 12.33 3.61 12.33ZM7.44 12.33L9.56 12.33L9.56 26.44L7.44 26.44L7.44 12.33ZM19.97 26.44L17.86 26.44L17.86 12.33L19.97 12.33L19.97 26.44ZM21.67 12.33L26.61 12.33L26.61 26.44L21.67 26.44L21.67 12.33ZM16.18 26.44L11.24 26.44L11.24 12.33L16.18 12.33L16.18 26.44ZM30.4 26.44L28.29 26.44L28.29 12.33L30.4 12.33L30.4 26.44Z" fill="#000000" fill-opacity="1.000000" fill-rule="nonzero"/>
	<path id="Vector" d="M3.94 9.79L34.46 9.79C34.86 9.79 35.19 9.53 35.27 9.15C35.37 8.77 35.19 8.38 34.86 8.21L19.6 0.09C19.34 -0.04 19.05 -0.04 18.81 0.09L3.55 8.21C3.21 8.39 3.03 8.78 3.13 9.15C3.23 9.53 3.56 9.79 3.94 9.79ZM19.2 1.78L31.09 8.11L7.32 8.11L19.2 1.78Z" fill="#000000" fill-opacity="1.000000" fill-rule="nonzero"/>
	<path id="Vector" d="M2.74 31L35.68 31C36.14 31 36.52 30.62 36.52 30.16C36.52 29.7 36.14 29.32 35.68 29.32L2.74 29.32C2.28 29.32 1.9 29.7 1.9 30.16C1.9 30.62 2.28 31 2.74 31Z" fill="#000000" fill-opacity="1.000000" fill-rule="nonzero"/>
	<path id="Vector" d="M37.57 32.19L0.83 32.19C0.37 32.19 0 32.57 0 33.03C0 33.49 0.37 33.87 0.83 33.87L37.57 33.87C38.03 33.87 38.41 33.49 38.41 33.03C38.41 32.57 38.03 32.19 37.57 32.19Z" fill="#000000" fill-opacity="1.000000" fill-rule="nonzero"/>
</svg>
