<svg width="43.624084" height="33.865967" viewBox="0 0 43.6241 33.866" fill="none" xmlns="http://www.w3.org/2000/svg" xmlns:xlink="http://www.w3.org/1999/xlink">
	<desc>
			Created with Pixso.
	</desc>
	<defs/>
	<path id="Vector" d="M39.99 7.6L36.02 7.6L36.02 3.62C36.02 1.62 34.39 0 32.39 0L3.62 0C1.62 0 0 1.62 0 3.62L0 22.63C0 24.64 1.62 26.26 3.62 26.26L7.6 26.26L7.6 30.24C7.6 32.24 9.22 33.86 11.22 33.86L39.99 33.86C42 33.86 43.62 32.24 43.62 30.24L43.62 18.83L43.62 14.29L43.62 11.22C43.63 9.22 42 7.6 39.99 7.6ZM41.95 11.22L41.95 13.45L9.28 13.45L9.28 11.22C9.28 10.14 10.14 9.28 11.22 9.28L34.88 9.28C34.98 9.32 35.08 9.33 35.18 9.33C35.28 9.33 35.39 9.31 35.47 9.28L39.99 9.28C41.07 9.28 41.95 10.14 41.95 11.22ZM41.95 17.99L9.28 17.99L9.28 15.13L41.95 15.13L41.95 17.99ZM3.62 24.58C2.54 24.58 1.67 23.71 1.67 22.63L1.67 3.61C1.67 2.53 2.54 1.66 3.62 1.66L32.39 1.66C33.47 1.66 34.34 2.53 34.34 3.61L34.34 7.58L11.22 7.58C9.22 7.58 7.6 9.21 7.6 11.21L7.6 14.28L7.6 18.81L7.6 24.56L3.62 24.56L3.62 24.58ZM39.99 32.18L23.5 32.18L11.22 32.18C10.14 32.18 9.28 31.31 9.28 30.24L9.28 19.67L41.95 19.67L41.95 30.24C41.95 31.31 41.07 32.18 39.99 32.18Z" fill="#000000" fill-opacity="1.000000" fill-rule="nonzero"/>
	<path id="Vector" d="M15.52 27.9L12.37 27.9C11.91 27.9 11.53 28.28 11.53 28.74C11.53 29.2 11.91 29.58 12.37 29.58L15.52 29.58C15.98 29.58 16.36 29.2 16.36 28.74C16.36 28.28 16 27.9 15.52 27.9Z" fill="#000000" fill-opacity="1.000000" fill-rule="nonzero"/>
	<path id="Vector" d="M22.2 27.9L18.28 27.9C17.82 27.9 17.44 28.28 17.44 28.74C17.44 29.2 17.82 29.58 18.28 29.58L22.2 29.58C22.66 29.58 23.04 29.2 23.04 28.74C23.04 28.28 22.66 27.9 22.2 27.9Z" fill="#000000" fill-opacity="1.000000" fill-rule="nonzero"/>
	<path id="Vector" d="M28.72 27.9L24.8 27.9C24.34 27.9 23.96 28.28 23.96 28.74C23.96 29.2 24.34 29.58 24.8 29.58L28.72 29.58C29.19 29.58 29.56 29.2 29.56 28.74C29.56 28.28 29.19 27.9 28.72 27.9Z" fill="#000000" fill-opacity="1.000000" fill-rule="nonzero"/>
	<path id="Vector" d="M35.25 27.9L31.33 27.9C30.87 27.9 30.49 28.28 30.49 28.74C30.49 29.2 30.87 29.58 31.33 29.58L35.25 29.58C35.71 29.58 36.09 29.2 36.09 28.74C36.09 28.28 35.71 27.9 35.25 27.9Z" fill="#000000" fill-opacity="1.000000" fill-rule="nonzero"/>
</svg>
