<svg width="44.652039" height="29.297241" viewBox="0 0 44.652 29.2972" fill="none" xmlns="http://www.w3.org/2000/svg" xmlns:xlink="http://www.w3.org/1999/xlink">
	<desc>
			Created with Pixso.
	</desc>
	<defs/>
	<path id="Vector" d="M41.96 24.11L41.71 24.11L41.71 4.98C41.71 2.31 39.5 0.15 36.8 0.15L8.59 0.15C5.87 0.15 3.67 2.32 3.67 4.98L3.67 24.11L2.68 24.11C1.28 24.11 0.15 25.23 0.15 26.61L0.15 26.65C0.15 28.03 1.28 29.14 2.68 29.14L41.96 29.14C43.36 29.14 44.5 28.03 44.5 26.65L44.5 26.61C44.5 25.24 43.36 24.11 41.96 24.11ZM5.12 4.98C5.12 3.1 6.67 1.57 8.59 1.57L36.8 1.57C38.72 1.57 40.27 3.1 40.27 4.98L40.27 24.11L5.12 24.11L5.12 4.98ZM43.06 26.65C43.06 27.24 42.57 27.72 41.96 27.72L2.68 27.72C2.08 27.72 1.59 27.24 1.59 26.65L1.59 26.61C1.59 26.01 2.08 25.53 2.68 25.53L4.39 25.53L40.98 25.53L41.95 25.53C42.55 25.53 43.04 26.01 43.04 26.61L43.04 26.65L43.06 26.65Z" fill="#000000" fill-opacity="1.000000" fill-rule="nonzero"/>
	<path id="Vector" d="M41.71 24.11L41.71 4.98C41.71 2.31 39.5 0.15 36.8 0.15L8.59 0.15C5.87 0.15 3.67 2.32 3.67 4.98L3.67 24.11L2.68 24.11C1.28 24.11 0.15 25.23 0.15 26.61L0.15 26.65C0.15 28.03 1.28 29.14 2.68 29.14L41.96 29.14C43.36 29.14 44.5 28.03 44.5 26.65L44.5 26.61C44.5 25.24 43.36 24.11 41.96 24.11L41.71 24.11ZM8.59 1.57L36.8 1.57C38.72 1.57 40.27 3.1 40.27 4.98L40.27 24.11L5.12 24.11L5.12 4.98C5.12 3.1 6.67 1.57 8.59 1.57ZM41.96 27.72L2.68 27.72C2.08 27.72 1.59 27.24 1.59 26.65L1.59 26.61C1.59 26.01 2.08 25.53 2.68 25.53L4.39 25.53L40.98 25.53L41.95 25.53C42.55 25.53 43.04 26.01 43.04 26.61L43.04 26.65L43.06 26.65C43.06 27.24 42.57 27.72 41.96 27.72Z" stroke="#000000" stroke-opacity="1.000000" stroke-width="0.300000"/>
	<path id="Vector" d="M37.34 3.66L7.3 3.66C6.91 3.66 6.59 3.98 6.59 4.36C6.59 4.75 6.91 5.07 7.3 5.07L37.34 5.07C37.74 5.07 38.06 4.75 38.06 4.36C38.06 3.98 37.74 3.66 37.34 3.66Z" fill="#000000" fill-opacity="1.000000" fill-rule="nonzero"/>
	<path id="Vector" d="M7.3 3.66C6.91 3.66 6.59 3.98 6.59 4.36C6.59 4.75 6.91 5.07 7.3 5.07L37.34 5.07C37.74 5.07 38.06 4.75 38.06 4.36C38.06 3.98 37.74 3.66 37.34 3.66L7.3 3.66Z" stroke="#000000" stroke-opacity="1.000000" stroke-width="0.300000"/>
</svg>
