<svg width="37.729980" height="33.879883" viewBox="0 0 37.73 33.8799" fill="none" xmlns="http://www.w3.org/2000/svg" xmlns:xlink="http://www.w3.org/1999/xlink">
	<desc>
			Created with Pixso.
	</desc>
	<defs/>
	<path id="Vector" d="M36.87 2.91L28.02 2.91L28.02 0.84C28.02 0.37 27.64 0 27.18 0L10.52 0C10.06 0 9.68 0.37 9.68 0.84L9.68 2.91L0.84 2.91C0.37 2.91 0 3.29 0 3.75L0 33.04C0 33.5 0.37 33.87 0.84 33.87L36.88 33.87C37.35 33.87 37.73 33.5 37.73 33.04L37.73 3.75C37.71 3.29 37.35 2.91 36.87 2.91ZM11.36 1.67L26.36 1.67L26.36 5.53L11.36 5.53L11.36 1.67ZM36.03 32.2L1.67 32.2L1.67 4.59L9.68 4.59L9.68 6.37C9.68 6.83 10.06 7.2 10.52 7.2L27.2 7.2C27.66 7.2 28.04 6.83 28.04 6.37L28.04 4.59L36.05 4.59L36.05 32.2L36.03 32.2Z" fill="#FFFFFF" fill-opacity="1.000000" fill-rule="nonzero"/>
	<path id="Vector" d="M22.39 13.24C21.93 13.24 21.55 13.62 21.55 14.08C21.55 14.54 21.93 14.92 22.39 14.92L31.96 14.92C32.42 14.92 32.8 14.54 32.8 14.08C32.8 13.62 32.42 13.24 31.96 13.24L22.39 13.24Z" fill="#FFFFFF" fill-opacity="1.000000" fill-rule="nonzero"/>
	<path id="Vector" d="M31.96 17.12L22.39 17.12C21.93 17.12 21.55 17.49 21.55 17.96C21.55 18.42 21.93 18.8 22.39 18.8L31.96 18.8C32.42 18.8 32.8 18.42 32.8 17.96C32.8 17.49 32.42 17.12 31.96 17.12Z" fill="#FFFFFF" fill-opacity="1.000000" fill-rule="nonzero"/>
	<path id="Vector" d="M31.96 20.98L22.39 20.98C21.93 20.98 21.55 21.36 21.55 21.82C21.55 22.28 21.93 22.66 22.39 22.66L31.96 22.66C32.42 22.66 32.8 22.28 32.8 21.82C32.8 21.36 32.42 20.98 31.96 20.98Z" fill="#FFFFFF" fill-opacity="1.000000" fill-rule="nonzero"/>
	<path id="Vector" d="M28.43 24.84L22.39 24.84C21.93 24.84 21.55 25.22 21.55 25.68C21.55 26.15 21.93 26.52 22.39 26.52L28.43 26.52C28.89 26.52 29.27 26.15 29.27 25.68C29.27 25.22 28.89 24.84 28.43 24.84Z" fill="#FFFFFF" fill-opacity="1.000000" fill-rule="nonzero"/>
	<path id="Vector" d="M13.42 19.61L13.29 19.61C14.08 18.8 14.47 17.68 14.47 16.22C14.47 14.12 13 12.54 11.04 12.54C9.08 12.54 7.61 14.13 7.61 16.24C7.61 17.68 8 18.8 8.81 19.62L8.65 19.62C6.57 19.62 4.89 21.3 4.89 23.37L4.89 25.7C4.89 26.16 5.27 26.54 5.73 26.54L16.32 26.54C16.78 26.54 17.16 26.16 17.16 25.7L17.16 23.37C17.17 21.3 15.49 19.61 13.42 19.61ZM11.04 14.23C12.05 14.23 12.79 15.07 12.79 16.24C12.79 17.78 12.29 18.63 11.05 19.12C9.81 18.59 9.29 17.73 9.29 16.24C9.29 15.07 10.03 14.23 11.04 14.23ZM15.49 24.84L6.59 24.84L6.59 23.36C6.59 22.21 7.51 21.29 8.66 21.29L13.43 21.29C14.58 21.29 15.51 22.21 15.51 23.36L15.51 24.84L15.49 24.84Z" fill="#FFFFFF" fill-opacity="1.000000" fill-rule="nonzero"/>
</svg>
