<svg width="33.561768" height="33.907959" viewBox="0 0 33.5618 33.908" fill="none" xmlns="http://www.w3.org/2000/svg" xmlns:xlink="http://www.w3.org/1999/xlink">
	<desc>
			Created with Pixso.
	</desc>
	<defs/>
	<path id="Vector" d="M32.34 21.33C31.86 21.09 30.97 20.86 29.68 21.39C29.57 20.97 29.34 20.6 29.01 20.32C28.18 19.66 26.89 19.75 25.62 20.53C25.45 20.28 25.25 20.11 25.07 20C24.29 19.54 23.2 19.68 21.71 20.48L17.39 22.79C17.25 22.86 17.16 22.97 17.08 23.08C15.87 22.91 14.92 22.45 12.89 20.95L10.04 18.84C9.14 18.17 7.28 18.12 5.79 18.73L0.52 20.87C0.08 21.04 -0.11 21.53 0.05 21.96C0.22 22.4 0.73 22.61 1.15 22.42L6.42 20.28C7.56 19.82 8.75 19.99 9.03 20.2L11.88 22.31C15.26 24.8 16.25 24.83 18.94 24.87C19.6 24.89 20.35 24.9 21.31 24.96C21.42 24.96 21.54 25.1 21.56 25.24C21.6 25.49 21.22 25.67 21 25.76C17.12 27.53 14.78 26.93 10.68 24.83C10.27 24.62 9.76 24.79 9.55 25.2C9.34 25.6 9.5 26.12 9.91 26.33C12.29 27.55 14.39 28.49 16.78 28.49C18.24 28.49 19.82 28.14 21.64 27.31C22.99 26.79 23.32 25.77 23.21 24.99C23.07 24.06 22.3 23.35 21.39 23.29C20.93 23.26 20.51 23.25 20.12 23.24L22.48 21.98C23.62 21.37 24.12 21.41 24.19 21.46C24.19 21.46 24.27 21.55 24.27 21.9C24.27 22.21 24.44 22.49 24.72 22.65C25 22.79 25.32 22.77 25.59 22.59L26.32 22.09C27.17 21.5 27.76 21.51 27.94 21.65C28.07 21.75 28.11 22.1 27.91 22.62C27.77 22.97 27.89 23.36 28.18 23.6C28.47 23.82 28.88 23.84 29.19 23.61C30.36 22.76 31.19 22.66 31.57 22.86C31.85 23 31.86 23.26 31.86 23.33C31.86 23.46 31.82 23.61 31.57 23.75L20.07 31.02C17.78 32.48 14.95 32.34 14.43 32.03C14.36 31.99 14.29 31.96 14.21 31.93C12.78 31.56 11.65 31.2 10.64 30.88C8.08 30.07 6.23 29.48 2.85 29.91C2.39 29.97 2.07 30.39 2.13 30.85C2.18 31.31 2.62 31.65 3.06 31.58C6.07 31.2 7.6 31.68 10.13 32.49C11.14 32.81 12.28 33.17 13.69 33.54C14.15 33.76 14.89 33.9 15.78 33.9C17.33 33.9 19.32 33.48 20.97 32.45L32.41 25.22C33.12 24.86 33.56 24.15 33.56 23.35C33.54 22.48 33.08 21.72 32.34 21.33Z" fill="#FFFFFF" fill-opacity="1.000000" fill-rule="nonzero"/>
	<path id="Vector" d="M16.76 18.73C21.92 18.73 26.12 14.53 26.12 9.36C26.12 4.19 21.92 0 16.76 0C11.59 0 7.39 4.19 7.39 9.36C7.39 14.53 11.59 18.73 16.76 18.73ZM16.76 1.68C21 1.68 24.44 5.12 24.44 9.36C24.44 13.6 21 17.05 16.76 17.05C12.51 17.05 9.07 13.6 9.07 9.36C9.07 5.13 12.51 1.68 16.76 1.68Z" fill="#FFFFFF" fill-opacity="1.000000" fill-rule="nonzero"/>
	<path id="Vector" d="M13.05 12.75L14.05 12.75L14.05 13.32C14.05 13.78 14.43 14.16 14.89 14.16C15.36 14.16 15.73 13.78 15.73 13.32L15.73 12.75L17.67 12.75C18.13 12.75 18.51 12.37 18.51 11.91C18.51 11.45 18.13 11.07 17.67 11.07L15.73 11.07L15.73 10.61L18.39 10.61C19.88 10.61 21.1 9.39 21.1 7.9L21.1 7.16C21.1 5.68 19.88 4.46 18.39 4.46L15.05 4.46C14.8 4.46 14.59 4.57 14.43 4.75C14.22 4.91 14.07 5.15 14.07 5.43L14.07 11.08L13.06 11.08C12.6 11.08 12.22 11.46 12.22 11.92C12.22 12.38 12.58 12.75 13.05 12.75ZM19.42 7.16L19.42 7.9C19.42 8.46 18.95 8.93 18.39 8.93L15.73 8.93L15.73 6.14L18.39 6.14C18.95 6.14 19.42 6.59 19.42 7.16Z" fill="#FFFFFF" fill-opacity="1.000000" fill-rule="nonzero"/>
</svg>
