<svg width="31.531494" height="33.865967" viewBox="0 0 31.5315 33.866" fill="none" xmlns="http://www.w3.org/2000/svg" xmlns:xlink="http://www.w3.org/1999/xlink">
	<desc>
			Created with Pixso.
	</desc>
	<defs/>
	<path id="Vector" d="M30.71 14.3L30.59 14.21C30.5 14.14 30.41 14.08 30.32 14.01L30.98 13.25C31.39 12.79 31.57 12.19 31.51 11.57C31.46 10.97 31.18 10.41 30.71 10.01L30.6 9.91C30.5 9.82 30.39 9.75 30.28 9.68L30.81 9.18C31.27 8.75 31.53 8.14 31.53 7.5C31.53 6.87 31.29 6.27 30.84 5.79L30.73 5.67C30.07 4.98 29.12 4.76 28.28 4.99L28.28 2.93C28.28 1.31 26.96 0 25.34 0L13.44 0C11.81 0 10.5 1.31 10.5 2.93L10.5 9.07C9.92 9.28 9.49 9.7 9.31 10.24C8.9 11.53 8.62 12.48 8.38 13.27C7.95 14.72 7.71 15.52 7.26 16.68C6.75 18.03 6.7 19.6 6.68 20.86C6.66 21.43 6.65 22.23 6.56 22.4C6.51 22.51 6.07 23.19 5.58 23.98L4.93 23.32C4.6 23 4.07 23 3.74 23.32L0.24 26.82C-0.09 27.14 -0.09 27.67 0.24 28.01L5.84 33.61C6.16 33.93 6.69 33.93 7.03 33.61C7.35 33.29 7.35 32.75 7.03 32.42L2.01 27.41L4.32 25.1L12.84 33.61C13 33.78 13.21 33.86 13.42 33.86C13.63 33.86 13.86 33.78 14.01 33.61C14.25 33.37 14.32 33.01 14.19 32.71C14.5 32.41 14.84 32.07 15.13 31.78C20.41 31.99 22.8 28.7 23.63 27.56L25.31 27.56C26.93 27.56 28.25 26.25 28.25 24.62L28.25 24.08C28.26 24.08 28.28 24.08 28.29 24.08C28.33 24.08 28.39 24.08 28.43 24.08C28.85 24.05 29.23 23.87 29.5 23.57L30.9 21.95C31.71 21.01 31.6 19.57 30.63 18.74L30.52 18.64C30.42 18.56 30.31 18.48 30.2 18.41L30.97 17.51C31.81 16.59 31.68 15.13 30.71 14.3ZM25.93 20.48C25.67 20.77 25.55 21.18 25.58 21.6C25.58 21.63 25.59 21.65 25.59 21.68L14.59 21.68C14.22 20.13 13.61 18.84 13.02 18C13.51 16.46 13.75 15.18 13.93 13.21C14.04 12.05 13.68 10.87 12.86 9.74C12.68 9.49 12.43 9.31 12.16 9.17L12.16 5.18L26.58 5.18L26.58 6.24L25.66 7.11C24.92 7.81 25.07 9.14 26.01 10.13L26.12 10.26C26.32 10.47 26.54 10.64 26.77 10.78L25.91 11.76C25.56 12.16 25.46 12.74 25.65 13.34C25.79 13.8 26.09 14.26 26.51 14.61L26.64 14.71C26.72 14.78 26.82 14.84 26.92 14.89L25.93 16.04C25.28 16.79 25.53 18.04 26.53 18.9L26.65 18.99C26.77 19.09 26.88 19.18 27 19.25L25.93 20.48ZM27.75 13.45L27.62 13.35C27.34 13.11 27.26 12.86 27.2 12.86C27.2 12.86 27.2 12.86 27.19 12.86L28.61 11.21C28.71 11.1 28.85 11.03 29.01 11.01C29.17 11 29.34 11.06 29.48 11.17L29.59 11.27C29.72 11.38 29.8 11.53 29.82 11.7C29.83 11.85 29.79 12.01 29.69 12.13L28.35 13.72C28.31 13.74 28.04 13.7 27.75 13.45ZM27.75 17.73L27.62 17.64C27.33 17.38 27.26 17.12 27.2 17.15L28.63 15.49C28.73 15.38 28.87 15.31 29.03 15.3C29.2 15.3 29.37 15.34 29.5 15.45L29.62 15.55C29.89 15.77 29.93 16.17 29.72 16.42L28.38 18C28.31 18.04 28.04 18 27.75 17.73ZM29.51 6.83L29.62 6.95C29.76 7.11 29.85 7.29 29.85 7.5C29.85 7.68 29.78 7.85 29.65 7.96L28.05 9.5C28 9.52 27.66 9.44 27.35 9.11L27.24 8.98C26.93 8.65 26.86 8.34 26.84 8.34L28.52 6.76C28.77 6.49 29.23 6.53 29.51 6.83ZM13.44 1.68L25.34 1.68C26.04 1.68 26.6 2.23 26.6 2.93L26.6 3.5L12.18 3.5L12.18 2.93C12.18 2.23 12.74 1.68 13.44 1.68ZM14.89 30.1C14.66 30.08 14.43 30.17 14.25 30.32C13.91 30.63 13.47 31.08 13.07 31.48L6.8 25.21C7.96 23.35 8.05 23.19 8.08 23.14C8.31 22.63 8.33 21.91 8.36 20.9C8.38 19.76 8.41 18.36 8.83 17.29C9.31 16.05 9.56 15.18 9.99 13.74C10.23 12.96 10.51 12.01 10.92 10.73C10.93 10.71 10.96 10.69 10.99 10.66C11.1 10.72 11.21 10.75 11.35 10.75C11.42 10.75 11.48 10.72 11.53 10.71C12.09 11.5 12.35 12.29 12.28 13.03C12.08 15.06 11.86 16.24 11.31 17.86C11.23 18.12 11.27 18.42 11.45 18.64C12.35 19.78 13.62 22.56 13.12 25.94C12.82 26.06 12.61 26.36 12.61 26.71C12.61 26.92 12.7 27.1 12.82 27.24C12.77 27.43 12.74 27.63 12.67 27.83C12.51 28.26 12.75 28.75 13.19 28.89C13.28 28.92 13.37 28.93 13.47 28.93C13.82 28.93 14.14 28.71 14.26 28.37C14.36 28.09 14.42 27.81 14.49 27.53L21.54 27.53C20.41 28.84 18.44 30.36 14.89 30.1ZM25.34 25.9L14.8 25.9C14.91 25.01 14.94 24.17 14.87 23.38L26.6 23.38L26.6 24.64C26.6 25.34 26.02 25.9 25.34 25.9ZM29.65 20.86L28.33 22.41C28.28 22.42 28.01 22.38 27.73 22.13L27.62 22.03C27.35 21.81 27.27 21.57 27.21 21.57L27.2 21.57L28.6 19.95C28.7 19.83 28.84 19.76 28.99 19.76C29.17 19.74 29.31 19.81 29.44 19.92L29.55 20.02C29.8 20.25 29.85 20.63 29.65 20.86Z" fill="#FFFFFF" fill-opacity="1.000000" fill-rule="nonzero"/>
	<path id="Vector" d="M20.44 23.79L18.34 23.79C17.88 23.79 17.5 24.17 17.5 24.63C17.5 25.1 17.88 25.48 18.34 25.48L20.44 25.48C20.9 25.48 21.28 25.1 21.28 24.63C21.28 24.17 20.9 23.79 20.44 23.79Z" fill="#FFFFFF" fill-opacity="1.000000" fill-rule="nonzero"/>
	<path id="Vector" d="M3.74 26.85C3.41 27.17 3.41 27.7 3.74 28.04L4.44 28.74C4.6 28.9 4.81 28.99 5.02 28.99C5.23 28.99 5.46 28.9 5.61 28.74C5.93 28.41 5.93 27.88 5.61 27.55L4.91 26.85C4.6 26.51 4.07 26.51 3.74 26.85Z" fill="#FFFFFF" fill-opacity="1.000000" fill-rule="nonzero"/>
	<path id="Vector" d="M22.61 9.47L16.2 9.47C15.73 9.47 15.36 9.85 15.36 10.31C15.36 10.77 15.73 11.15 16.2 11.15L22.61 11.15C23.07 11.15 23.45 10.77 23.45 10.31C23.45 9.85 23.07 9.47 22.61 9.47Z" fill="#FFFFFF" fill-opacity="1.000000" fill-rule="nonzero"/>
	<path id="Vector" d="M22.61 12.27L16.2 12.27C15.73 12.27 15.36 12.65 15.36 13.11C15.36 13.58 15.73 13.95 16.2 13.95L22.61 13.95C23.07 13.95 23.45 13.58 23.45 13.11C23.45 12.65 23.07 12.27 22.61 12.27Z" fill="#FFFFFF" fill-opacity="1.000000" fill-rule="nonzero"/>
</svg>
