<svg width="35.518005" height="33.894043" viewBox="0 0 35.518 33.894" fill="none" xmlns="http://www.w3.org/2000/svg" xmlns:xlink="http://www.w3.org/1999/xlink">
	<desc>
			Created with Pixso.
	</desc>
	<defs/>
	<path id="Vector" d="M24.03 8.51C23.99 8.37 23.94 8.23 23.82 8.13L15.94 0.25C15.84 0.15 15.7 0.08 15.56 0.04C15.52 0.02 15.49 0.02 15.47 0.02C15.42 0.02 15.4 0 15.35 0L2.04 0C0.91 0 0 0.92 0 2.04L0 31.82C0 32.95 0.92 33.86 2.04 33.86L22.03 33.86C23.17 33.86 24.08 32.94 24.08 31.82L24.08 8.73C24.08 8.69 24.06 8.66 24.05 8.62C24.05 8.58 24.05 8.55 24.03 8.51ZM16.19 2.88L21.21 7.89L16.57 7.89C16.37 7.89 16.21 7.72 16.21 7.53L16.21 2.88L16.19 2.88ZM22.03 32.21L2.04 32.21C1.84 32.21 1.67 32.04 1.67 31.85L1.67 2.05C1.67 1.84 1.84 1.69 2.04 1.69L14.51 1.69L14.51 7.53C14.51 8.66 15.44 9.57 16.56 9.57L22.38 9.57L22.38 31.85C22.4 32.03 22.23 32.21 22.03 32.21Z" fill="#FFFFFF" fill-opacity="1.000000" fill-rule="nonzero"/>
	<path id="Vector" d="M35.26 7.82C35.11 7.67 34.88 7.57 34.67 7.57L32.68 7.57L32.68 4.88C32.68 4.42 32.31 4.04 31.85 4.04L27.53 4.04C27.07 4.04 26.69 4.42 26.69 4.88L26.69 8.27C26.68 8.31 26.67 8.35 26.67 8.41C26.67 8.46 26.68 8.49 26.69 8.55L26.69 27.28C26.69 29.55 27.66 30.84 28.78 31.29L28.78 33.05C28.78 33.51 29.16 33.89 29.62 33.89C30.08 33.89 30.46 33.51 30.46 33.05L30.46 31.34C31.64 30.95 32.68 29.66 32.68 27.3L32.68 9.26L33.83 9.26L33.82 16.79C33.82 17.26 34.2 17.64 34.66 17.64C35.12 17.64 35.5 17.26 35.5 16.79L35.51 8.42C35.5 8.2 35.41 7.99 35.26 7.82ZM30.99 5.73L30.99 7.58L28.36 7.58L28.36 5.73L30.99 5.73ZM30.99 27.3C30.99 30.6 28.36 30.59 28.36 27.3L28.36 9.26L30.99 9.26L30.99 27.3Z" fill="#FFFFFF" fill-opacity="1.000000" fill-rule="nonzero"/>
	<path id="Vector" d="M5.67 8.17L12.04 8.17C12.5 8.17 12.88 7.79 12.88 7.33C12.88 6.87 12.5 6.49 12.04 6.49L5.67 6.49C5.2 6.49 4.83 6.87 4.83 7.33C4.83 7.79 5.2 8.17 5.67 8.17Z" fill="#FFFFFF" fill-opacity="1.000000" fill-rule="nonzero"/>
	<path id="Vector" d="M18.41 12.51L5.67 12.51C5.2 12.51 4.83 12.89 4.83 13.35C4.83 13.81 5.2 14.19 5.67 14.19L18.41 14.19C18.87 14.19 19.25 13.81 19.25 13.35C19.25 12.89 18.87 12.51 18.41 12.51Z" fill="#FFFFFF" fill-opacity="1.000000" fill-rule="nonzero"/>
	<path id="Vector" d="M18.41 16.04L5.67 16.04C5.2 16.04 4.83 16.42 4.83 16.88C4.83 17.34 5.2 17.72 5.67 17.72L18.41 17.72C18.87 17.72 19.25 17.34 19.25 16.88C19.25 16.42 18.87 16.04 18.41 16.04Z" fill="#FFFFFF" fill-opacity="1.000000" fill-rule="nonzero"/>
	<path id="Vector" d="M18.41 19.55L5.67 19.55C5.2 19.55 4.83 19.93 4.83 20.39C4.83 20.86 5.2 21.23 5.67 21.23L18.41 21.23C18.87 21.23 19.25 20.86 19.25 20.39C19.25 19.93 18.87 19.55 18.41 19.55Z" fill="#FFFFFF" fill-opacity="1.000000" fill-rule="nonzero"/>
	<path id="Vector" d="M12.04 23.07L5.67 23.07C5.2 23.07 4.83 23.45 4.83 23.91C4.83 24.37 5.2 24.75 5.67 24.75L12.04 24.75C12.5 24.75 12.88 24.37 12.88 23.91C12.88 23.45 12.5 23.07 12.04 23.07Z" fill="#FFFFFF" fill-opacity="1.000000" fill-rule="nonzero"/>
</svg>
