<svg width="21.052002" height="33.468323" viewBox="0 0 21.052 33.4683" fill="none" xmlns="http://www.w3.org/2000/svg" xmlns:xlink="http://www.w3.org/1999/xlink">
	<desc>
			Created with Pixso.
	</desc>
	<defs/>
	<path id="Vector" d="M16 0.25L5.05 0.25C2.4 0.25 0.25 2.42 0.25 5.1L0.25 28.36C0.25 28.4 0.25 28.43 0.25 28.46C0.25 28.47 0.25 28.48 0.25 28.51C0.25 28.55 0.25 28.61 0.26 28.65C0.41 31.19 2.5 33.21 5.05 33.21L16 33.21C18.54 33.21 20.64 31.19 20.78 28.65C20.8 28.61 20.8 28.57 20.8 28.51C20.8 28.5 20.8 28.48 20.8 28.46C20.8 28.41 20.8 28.39 20.8 28.36L20.8 5.1C20.8 2.42 18.64 0.25 16 0.25ZM1.56 27.86L1.56 6.24L19.47 6.24L19.47 27.86L1.56 27.86ZM5.05 1.55L16 1.55C17.86 1.55 19.38 3.06 19.47 4.93L1.57 4.93C1.66 3.06 3.18 1.55 5.05 1.55ZM16 31.92L5.05 31.92C3.4 31.92 2.02 30.75 1.66 29.17L19.38 29.17C19.02 30.73 17.65 31.92 16 31.92Z" fill="#000000" fill-opacity="1.000000" fill-rule="nonzero"/>
	<path id="Vector" d="M5.05 0.25C2.4 0.25 0.25 2.42 0.25 5.1L0.25 28.36C0.25 28.4 0.25 28.43 0.25 28.46C0.25 28.47 0.25 28.48 0.25 28.51C0.25 28.55 0.25 28.61 0.26 28.65C0.41 31.19 2.5 33.21 5.05 33.21L16 33.21C18.54 33.21 20.64 31.19 20.78 28.65C20.8 28.61 20.8 28.57 20.8 28.51C20.8 28.5 20.8 28.48 20.8 28.46C20.8 28.41 20.8 28.39 20.8 28.36L20.8 5.1C20.8 2.42 18.64 0.25 16 0.25L5.05 0.25ZM1.56 6.24L19.47 6.24L19.47 27.86L1.56 27.86L1.56 6.24ZM16 1.55C17.86 1.55 19.38 3.06 19.47 4.93L1.57 4.93C1.66 3.06 3.18 1.55 5.05 1.55L16 1.55ZM5.05 31.92C3.4 31.92 2.02 30.75 1.66 29.17L19.38 29.17C19.02 30.73 17.65 31.92 16 31.92L5.05 31.92Z" stroke="#000000" stroke-opacity="1.000000" stroke-width="0.500000"/>
	<path id="Vector" d="M9.82 3.86L11.63 3.86C11.99 3.86 12.28 3.57 12.28 3.21C12.28 2.85 11.99 2.56 11.63 2.56L9.82 2.56C9.46 2.56 9.16 2.85 9.16 3.21C9.16 3.57 9.46 3.86 9.82 3.86Z" fill="#000000" fill-opacity="1.000000" fill-rule="nonzero"/>
	<path id="Vector" d="M11.63 3.86C11.99 3.86 12.28 3.57 12.28 3.21C12.28 2.85 11.99 2.56 11.63 2.56L9.82 2.56C9.46 2.56 9.16 2.85 9.16 3.21C9.16 3.57 9.46 3.86 9.82 3.86L11.63 3.86Z" stroke="#000000" stroke-opacity="1.000000" stroke-width="0.500000"/>
</svg>
