<svg width="38.359985" height="33.879883" viewBox="0 0 38.36 33.8799" fill="none" xmlns="http://www.w3.org/2000/svg" xmlns:xlink="http://www.w3.org/1999/xlink">
	<desc>
			Created with Pixso.
	</desc>
	<defs/>
	<path id="Vector" d="M37.52 0L0.83 0C0.37 0 0 0.37 0 0.84L0 19.97C0 20.43 0.37 20.81 0.83 20.81L37.52 20.81C37.98 20.81 38.36 20.43 38.36 19.97L38.36 0.84C38.36 0.37 37.99 0 37.52 0ZM1.67 8.26C1.7 8.26 1.73 8.27 1.76 8.27C5.4 8.27 8.35 5.32 8.35 1.67L30 1.67C30 5.32 32.95 8.27 36.59 8.27C36.62 8.27 36.65 8.26 36.68 8.26L36.68 12.54C36.65 12.54 36.62 12.53 36.59 12.53C32.95 12.53 30 15.48 30 19.12L8.35 19.12C8.35 15.48 5.4 12.53 1.76 12.53C1.73 12.53 1.7 12.54 1.67 12.54L1.67 8.26ZM36.68 6.62C36.65 6.62 36.62 6.6 36.59 6.6C33.88 6.6 31.68 4.39 31.68 1.69L36.68 1.69L36.68 6.62ZM6.67 1.67C6.67 4.39 4.46 6.6 1.76 6.6C1.73 6.6 1.7 6.62 1.67 6.62L1.67 1.67L6.67 1.67ZM1.67 14.19C1.7 14.19 1.73 14.21 1.76 14.21C4.48 14.21 6.67 16.42 6.67 19.12L1.67 19.12L1.67 14.19ZM31.68 19.13C31.68 16.42 33.89 14.21 36.59 14.21C36.62 14.21 36.65 14.19 36.68 14.19L36.68 19.13L31.68 19.13Z" fill="#FFFFFF" fill-opacity="1.000000" fill-rule="nonzero"/>
	<path id="Vector" d="M19.18 17.47C22.21 17.47 24.69 14.3 24.69 10.4C24.69 6.51 22.21 3.33 19.18 3.33C16.14 3.33 13.66 6.49 13.66 10.4C13.66 14.3 16.14 17.47 19.18 17.47ZM19.18 5.02C21.29 5.02 23.01 7.44 23.01 10.41C23.01 13.38 21.29 15.8 19.18 15.8C17.06 15.8 15.34 13.38 15.34 10.41C15.34 7.43 17.06 5.02 19.18 5.02Z" fill="#FFFFFF" fill-opacity="1.000000" fill-rule="nonzero"/>
	<path id="Vector" d="M9.82 12.46C10.96 12.46 11.87 11.53 11.87 10.41C11.87 9.29 10.94 8.37 9.82 8.37C8.69 8.37 7.78 9.29 7.78 10.41C7.78 11.53 8.69 12.46 9.82 12.46ZM9.82 10.03C10.02 10.03 10.19 10.2 10.19 10.4C10.19 10.8 9.44 10.8 9.46 10.4C9.46 10.2 9.61 10.03 9.82 10.03Z" fill="#FFFFFF" fill-opacity="1.000000" fill-rule="nonzero"/>
	<path id="Vector" d="M28.51 12.46C29.65 12.46 30.56 11.53 30.56 10.41C30.56 9.29 29.63 8.37 28.51 8.37C27.39 8.37 26.47 9.29 26.47 10.41C26.47 11.53 27.38 12.46 28.51 12.46ZM28.51 10.03C28.71 10.03 28.88 10.2 28.88 10.4C28.88 10.8 28.14 10.8 28.14 10.4C28.15 10.2 28.3 10.03 28.51 10.03Z" fill="#FFFFFF" fill-opacity="1.000000" fill-rule="nonzero"/>
	<path id="Vector" d="M37.39 23.58L0.96 23.58C0.5 23.58 0.12 23.96 0.12 24.42C0.12 24.89 0.5 25.26 0.96 25.26L37.39 25.26C37.85 25.26 38.23 24.89 38.23 24.42C38.23 23.96 37.85 23.58 37.39 23.58Z" fill="#FFFFFF" fill-opacity="1.000000" fill-rule="nonzero"/>
	<path id="Vector" d="M37.39 27.9L0.96 27.9C0.5 27.9 0.12 28.27 0.12 28.74C0.12 29.2 0.5 29.58 0.96 29.58L37.39 29.58C37.85 29.58 38.23 29.2 38.23 28.74C38.23 28.27 37.85 27.9 37.39 27.9Z" fill="#FFFFFF" fill-opacity="1.000000" fill-rule="nonzero"/>
	<path id="Vector" d="M37.39 32.2L0.96 32.2C0.5 32.2 0.12 32.57 0.12 33.04C0.12 33.5 0.5 33.87 0.96 33.87L37.39 33.87C37.85 33.87 38.23 33.5 38.23 33.04C38.23 32.57 37.85 32.2 37.39 32.2Z" fill="#FFFFFF" fill-opacity="1.000000" fill-rule="nonzero"/>
</svg>
