<svg width="33.894043" height="33.894043" viewBox="0 0 33.894 33.894" fill="none" xmlns="http://www.w3.org/2000/svg" xmlns:xlink="http://www.w3.org/1999/xlink">
	<desc>
			Created with Pixso.
	</desc>
	<defs/>
	<path id="Vector" d="M13.06 15.52C13.91 15.52 14.61 14.82 14.61 13.97C14.61 13.11 13.91 12.41 13.06 12.41C12.2 12.41 11.5 13.11 11.5 13.97C11.5 14.82 12.19 15.52 13.06 15.52ZM13.06 13.84C13.13 13.84 13.18 13.9 13.18 13.97C13.18 14.09 12.95 14.09 12.95 13.97C12.93 13.9 12.99 13.84 13.06 13.84Z" fill="#FFFFFF" fill-opacity="1.000000" fill-rule="nonzero"/>
	<path id="Vector" d="M20.83 15.52C21.68 15.52 22.38 14.82 22.38 13.97C22.38 13.11 21.68 12.41 20.83 12.41C19.97 12.41 19.27 13.11 19.27 13.97C19.27 14.82 19.96 15.52 20.83 15.52ZM20.83 13.84C20.9 13.84 20.94 13.9 20.94 13.97C20.94 14.11 20.7 14.09 20.7 13.97C20.7 13.9 20.76 13.84 20.83 13.84Z" fill="#FFFFFF" fill-opacity="1.000000" fill-rule="nonzero"/>
	<path id="Vector" d="M22.02 20.3C22.14 19.85 21.88 19.39 21.43 19.26C20.98 19.13 20.52 19.4 20.39 19.85C20.04 21.08 18.59 21.98 16.91 21.98C15.24 21.98 13.77 21.08 13.42 19.85C13.3 19.4 12.83 19.15 12.39 19.26C11.94 19.39 11.69 19.85 11.8 20.3C12.36 22.27 14.46 23.64 16.89 23.64C19.33 23.64 21.47 22.27 22.02 20.3Z" fill="#FFFFFF" fill-opacity="1.000000" fill-rule="nonzero"/>
	<path id="Vector" d="M33.89 15.51C33.89 12.4 31.65 9.78 28.77 9.42C28.32 7.26 27.15 5.09 25.53 3.45C23.4 1.33 20.38 0 17.63 0L16.28 0C13.53 0 10.51 1.33 8.38 3.45C6.74 5.09 5.6 7.25 5.15 9.4C2.23 9.75 0 12.37 0 15.49C0 18.7 2.36 21.4 5.38 21.62C5.41 21.62 5.43 21.62 5.45 21.62C5.65 21.62 5.82 21.56 5.96 21.44C6.34 21.36 6.62 21.04 6.62 20.64L6.62 11.35C6.62 11.25 6.63 11.15 6.63 11.07C9.4 10.29 11.8 8.54 13.39 6.13C15.59 8.03 18.36 9.07 21.3 9.07C23.12 9.07 24.91 8.63 26.55 7.85C27.06 9 27.34 10.2 27.34 11.35L27.34 20.64C27.34 23.03 26.12 25.89 24.37 27.64C23.14 28.88 21.36 29.48 19.87 29.79C19.45 28.57 18.32 27.69 16.96 27.69C15.26 27.69 13.87 29.07 13.87 30.78C13.87 32.49 15.21 33.89 16.92 33.89C18.39 33.89 19.62 32.85 19.93 31.47C22.3 31.02 24.23 30.14 25.52 28.85C27.37 27 28.67 24.17 28.92 21.57C31.73 21.13 33.89 18.57 33.89 15.51ZM16.92 32.21C16.14 32.21 15.51 31.58 15.51 30.8C15.51 30.01 16.14 29.38 16.92 29.38C17.7 29.38 18.34 30.01 18.34 30.8C18.34 31.58 17.7 32.21 16.92 32.21ZM1.63 15.51C1.63 13.38 3.03 11.59 4.91 11.15C4.91 11.22 4.89 11.29 4.89 11.36L4.89 19.87C3.03 19.43 1.63 17.63 1.63 15.51ZM21.28 7.4C18.43 7.4 15.77 6.27 13.79 4.22C13.6 4.03 13.34 3.94 13.07 3.97C12.81 4 12.58 4.17 12.44 4.4C11.22 6.66 9.23 8.34 6.9 9.21C7.35 7.56 8.27 5.92 9.54 4.64C11.36 2.82 13.94 1.67 16.26 1.67L17.62 1.67C19.93 1.67 22.51 2.81 24.34 4.64C24.86 5.16 25.32 5.75 25.73 6.38C24.33 7.04 22.82 7.4 21.28 7.4ZM28.98 19.86L28.98 11.36C28.98 11.29 28.96 11.22 28.96 11.15C30.82 11.6 32.21 13.39 32.21 15.51C32.21 17.62 30.82 19.41 28.98 19.86Z" fill="#FFFFFF" fill-opacity="1.000000" fill-rule="nonzero"/>
</svg>
