<svg width="39.290161" height="33.047729" viewBox="0 0 39.2902 33.0477" fill="none" xmlns="http://www.w3.org/2000/svg" xmlns:xlink="http://www.w3.org/1999/xlink">
	<desc>
			Created with Pixso.
	</desc>
	<defs/>
	<path id="Vector" d="M36.45 32.89L2.83 32.89C1.35 32.89 0.15 31.56 0.15 29.9L0.15 9.8C0.15 8.14 1.35 6.8 2.83 6.8L36.45 6.8C37.93 6.8 39.14 8.14 39.14 9.8L39.14 29.9C39.15 31.56 37.93 32.89 36.45 32.89ZM2.83 8.23C2.15 8.23 1.59 8.93 1.59 9.8L1.59 29.9C1.59 30.77 2.15 31.47 2.83 31.47L36.45 31.47C37.13 31.47 37.69 30.77 37.69 29.9L37.69 9.8C37.69 8.93 37.13 8.23 36.45 8.23L2.83 8.23Z" fill="#000000" fill-opacity="1.000000" fill-rule="nonzero"/>
	<path id="Vector" d="M2.83 32.89C1.35 32.89 0.15 31.56 0.15 29.9L0.15 9.8C0.15 8.14 1.35 6.8 2.83 6.8L36.45 6.8C37.93 6.8 39.14 8.14 39.14 9.8L39.14 29.9C39.15 31.56 37.93 32.89 36.45 32.89L2.83 32.89ZM1.59 9.8L1.59 29.9C1.59 30.77 2.15 31.47 2.83 31.47L36.45 31.47C37.13 31.47 37.69 30.77 37.69 29.9L37.69 9.8C37.69 8.93 37.13 8.23 36.45 8.23L2.83 8.23C2.15 8.23 1.59 8.93 1.59 9.8Z" stroke="#000000" stroke-opacity="1.000000" stroke-width="0.300000"/>
	<path id="Vector" d="M10.24 8.25C10.16 8.25 10.06 8.24 9.97 8.2C9.6 8.06 9.41 7.65 9.57 7.27L11.68 1.95C12.12 0.85 13.17 0.15 14.37 0.15L19.65 0.15C20.05 0.15 20.37 0.46 20.37 0.86C20.37 1.26 20.05 1.58 19.65 1.58L14.37 1.58C13.77 1.58 13.25 1.94 13.03 2.48L10.91 7.8C10.8 8.07 10.53 8.25 10.24 8.25Z" fill="#000000" fill-opacity="1.000000" fill-rule="nonzero"/>
	<path id="Vector" d="M9.97 8.2C9.6 8.06 9.41 7.65 9.57 7.27L11.68 1.95C12.12 0.85 13.17 0.15 14.37 0.15L19.65 0.15C20.05 0.15 20.37 0.46 20.37 0.86C20.37 1.26 20.05 1.58 19.65 1.58L14.37 1.58C13.77 1.58 13.25 1.94 13.03 2.48L10.91 7.8C10.8 8.07 10.53 8.25 10.24 8.25C10.16 8.25 10.06 8.24 9.97 8.2Z" stroke="#000000" stroke-opacity="1.000000" stroke-width="0.300000"/>
	<path id="Vector" d="M29.04 8.25C28.75 8.25 28.48 8.09 28.37 7.8L26.26 2.48C26.05 1.92 25.51 1.58 24.91 1.58L19.63 1.58C19.23 1.58 18.91 1.26 18.91 0.86C18.91 0.46 19.23 0.15 19.63 0.15L24.91 0.15C26.1 0.15 27.17 0.85 27.6 1.95L29.71 7.27C29.85 7.65 29.67 8.06 29.31 8.2C29.22 8.23 29.14 8.25 29.04 8.25Z" fill="#000000" fill-opacity="1.000000" fill-rule="nonzero"/>
	<path id="Vector" d="M28.37 7.8L26.26 2.48C26.05 1.92 25.51 1.58 24.91 1.58L19.63 1.58C19.23 1.58 18.91 1.26 18.91 0.86C18.91 0.46 19.23 0.15 19.63 0.15L24.91 0.15C26.1 0.15 27.17 0.85 27.6 1.95L29.71 7.27C29.85 7.65 29.67 8.06 29.31 8.2C29.22 8.23 29.14 8.25 29.04 8.25C28.75 8.25 28.48 8.09 28.37 7.8Z" stroke="#000000" stroke-opacity="1.000000" stroke-width="0.300000"/>
	<path id="Vector" d="M19.65 28.58C14.76 28.58 10.79 24.66 10.79 19.85C10.79 15.04 14.76 11.12 19.65 11.12C24.53 11.12 28.51 15.04 28.51 19.85C28.51 24.66 24.53 28.58 19.65 28.58ZM19.65 12.54C15.56 12.54 12.23 15.82 12.23 19.85C12.23 23.88 15.56 27.16 19.65 27.16C23.74 27.16 27.07 23.88 27.07 19.85C27.05 15.82 23.74 12.54 19.65 12.54Z" fill="#000000" fill-opacity="1.000000" fill-rule="nonzero"/>
	<path id="Vector" d="M10.79 19.85C10.79 15.04 14.76 11.12 19.65 11.12C24.53 11.12 28.51 15.04 28.51 19.85C28.51 24.66 24.53 28.58 19.65 28.58C14.76 28.58 10.79 24.66 10.79 19.85ZM12.23 19.85C12.23 23.88 15.56 27.16 19.65 27.16C23.74 27.16 27.07 23.88 27.07 19.85C27.05 15.82 23.74 12.54 19.65 12.54C15.56 12.54 12.23 15.82 12.23 19.85Z" stroke="#000000" stroke-opacity="1.000000" stroke-width="0.300000"/>
	<path id="Vector" d="M34.19 12.54L30.55 12.54C30.15 12.54 29.83 12.22 29.83 11.82C29.83 11.42 30.15 11.11 30.55 11.11L34.19 11.11C34.6 11.11 34.92 11.42 34.92 11.82C34.92 12.22 34.59 12.54 34.19 12.54Z" fill="#000000" fill-opacity="1.000000" fill-rule="nonzero"/>
	<path id="Vector" d="M30.55 12.54C30.15 12.54 29.83 12.22 29.83 11.82C29.83 11.42 30.15 11.11 30.55 11.11L34.19 11.11C34.6 11.11 34.92 11.42 34.92 11.82C34.92 12.22 34.59 12.54 34.19 12.54L30.55 12.54Z" stroke="#000000" stroke-opacity="1.000000" stroke-width="0.300000"/>
	<path id="Vector" d="M8.7 29.56L5.28 29.56C4.39 29.56 3.66 28.84 3.66 27.96L3.66 20.62C3.66 20.22 3.98 19.9 4.39 19.9C4.79 19.9 5.12 20.22 5.12 20.62L5.12 27.96C5.12 28.05 5.2 28.14 5.3 28.14L8.71 28.14C9.12 28.14 9.44 28.45 9.44 28.85C9.41 29.24 9.09 29.56 8.7 29.56Z" fill="#000000" fill-opacity="1.000000" fill-rule="nonzero"/>
	<path id="Vector" d="M5.28 29.56C4.39 29.56 3.66 28.84 3.66 27.96L3.66 20.62C3.66 20.22 3.98 19.9 4.39 19.9C4.79 19.9 5.12 20.22 5.12 20.62L5.12 27.96C5.12 28.05 5.2 28.14 5.3 28.14L8.71 28.14C9.12 28.14 9.44 28.45 9.44 28.85C9.41 29.24 9.09 29.56 8.7 29.56L5.28 29.56Z" stroke="#000000" stroke-opacity="1.000000" stroke-width="0.300000"/>
</svg>
