<svg width="31.929321" height="32.550049" viewBox="0 0 31.9293 32.55" fill="none" xmlns="http://www.w3.org/2000/svg" xmlns:xlink="http://www.w3.org/1999/xlink">
	<desc>
			Created with Pixso.
	</desc>
	<defs/>
	<path id="Vector" d="M14.73 19.72C14.73 20.46 15.3 21.08 16 21.08C16.7 21.08 17.29 20.48 17.29 19.72L17.29 18.36C17.65 17.99 17.86 17.48 17.86 16.95C17.86 15.86 17.04 14.98 16.02 14.98C14.99 14.98 14.17 15.86 14.17 16.95C14.17 17.48 14.38 18 14.74 18.36L14.74 19.72L14.73 19.72ZM15.58 16.93C15.58 16.65 15.78 16.43 16.02 16.43C16.25 16.43 16.45 16.65 16.45 16.93C16.45 17.12 16.37 17.29 16.23 17.37L16.03 17.5L15.83 17.37C15.67 17.29 15.58 17.12 15.58 16.93Z" fill="#FFFFFF" fill-opacity="1.000000" fill-rule="nonzero"/>
	<path id="Vector" d="M21.13 12.5L20.99 12.5L20.99 11.22C20.99 8.35 18.75 6.02 16 6.02C13.26 6.02 11.02 8.35 11.02 11.22L11.02 12.5L10.88 12.5C9.86 12.5 9.03 13.38 9.03 14.47L9.03 21.57C9.03 22.66 9.86 23.54 10.88 23.54L21.13 23.54C22.15 23.54 22.97 22.66 22.97 21.57L22.97 14.47C22.97 13.38 22.15 12.5 21.13 12.5ZM12.45 12.5L12.45 11.22C12.45 9.16 14.04 7.48 16 7.48C17.96 7.48 19.56 9.16 19.56 11.22L19.56 12.5L12.45 12.5ZM10.46 14.47C10.46 14.19 10.65 13.97 10.88 13.97L21.13 13.97C21.36 13.97 21.56 14.19 21.56 14.47L21.56 21.57C21.56 21.85 21.36 22.07 21.13 22.07L10.88 22.07C10.64 22.07 10.46 21.85 10.46 21.57L10.46 14.47Z" fill="#FFFFFF" fill-opacity="1.000000" fill-rule="nonzero"/>
	<path id="Vector" d="M31.09 5.76C26.57 4.91 20.15 2.72 16.62 0.2C16.23 -0.08 15.67 -0.08 15.29 0.2C11.76 2.72 5.33 4.91 0.81 5.76C0.34 5.85 0 6.21 0 6.62C-0.2 17.57 5.85 27.69 15.44 32.42C15.6 32.5 15.78 32.55 15.96 32.55C16.14 32.55 16.32 32.5 16.48 32.43C26.05 27.7 32.12 17.57 31.92 6.63C31.91 6.21 31.57 5.86 31.09 5.76ZM30.1 7.2C30.07 17.14 24.54 26.44 16 30.88L15.93 30.88C7.39 26.44 1.86 17.14 1.83 7.2C1.83 7.16 1.86 7.13 1.89 7.13C5.85 6.31 11.9 4.42 15.92 1.77C15.95 1.76 15.97 1.76 16 1.77C20.02 4.42 26.07 6.32 30.03 7.13C30.07 7.13 30.1 7.16 30.1 7.2Z" fill="#FFFFFF" fill-opacity="1.000000" fill-rule="nonzero"/>
</svg>
