<svg width="33.881775" height="33.907959" viewBox="0 0 33.8818 33.908" fill="none" xmlns="http://www.w3.org/2000/svg" xmlns:xlink="http://www.w3.org/1999/xlink">
	<desc>
			Created with Pixso.
	</desc>
	<defs/>
	<path id="Vector" d="M33.64 29.34L25.94 21.62C27.34 19.44 28.15 16.85 28.15 14.08C28.15 6.32 21.84 0 14.08 0C6.32 0 0 6.32 0 14.09C0 21.86 6.31 28.18 14.08 28.18C16.87 28.18 19.45 27.35 21.64 25.95L29.34 33.65C29.49 33.81 29.7 33.9 29.93 33.9C30.15 33.9 30.36 33.82 30.52 33.65L33.62 30.54C33.96 30.21 33.96 29.67 33.64 29.34ZM1.67 14.09C1.67 7.26 7.23 1.7 14.08 1.7C20.91 1.7 26.47 7.26 26.47 14.09C26.47 20.92 20.91 26.5 14.08 26.5C7.23 26.48 1.67 20.92 1.67 14.09ZM29.93 31.86L23.14 25.07L25.1 23.18L31.86 29.94L29.93 31.86Z" fill="#FFFFFF" fill-opacity="1.000000" fill-rule="nonzero"/>
	<path id="Vector" d="M24.68 15.03C25.14 15.03 25.52 14.65 25.52 14.19C25.52 7.81 20.32 2.61 13.94 2.61C13.48 2.61 13.1 2.99 13.1 3.45C13.1 3.92 13.48 4.29 13.94 4.29C19.4 4.29 23.84 8.73 23.84 14.19C23.84 14.65 24.22 15.03 24.68 15.03Z" fill="#FFFFFF" fill-opacity="1.000000" fill-rule="nonzero"/>
	<path id="Vector" d="M18.52 9.53C18.2 9.21 17.66 9.21 17.33 9.53L13.72 13.14L10.1 9.53C9.78 9.21 9.25 9.21 8.91 9.53C8.58 9.85 8.59 10.38 8.91 10.72L12.53 14.33L8.91 17.94C8.59 18.27 8.59 18.8 8.91 19.13C9.08 19.3 9.29 19.38 9.5 19.38C9.71 19.38 9.93 19.3 10.09 19.13L13.7 15.52L17.31 19.13C17.48 19.3 17.69 19.38 17.9 19.38C18.11 19.38 18.34 19.3 18.49 19.13C18.81 18.81 18.81 18.28 18.49 17.94L14.88 14.33L18.49 10.72C18.85 10.38 18.85 9.85 18.52 9.53Z" fill="#FFFFFF" fill-opacity="1.000000" fill-rule="nonzero"/>
</svg>
