<svg width="26.287964" height="33.413147" viewBox="0 0 26.288 33.4131" fill="none" xmlns="http://www.w3.org/2000/svg" xmlns:xlink="http://www.w3.org/1999/xlink">
	<desc>
			Created with Pixso.
	</desc>
	<defs/>
	<path id="Vector" d="M13.84 29.86L12.43 29.86C12.09 29.86 11.82 30.12 11.82 30.46C11.82 30.79 12.09 31.05 12.43 31.05L13.84 31.05C14.18 31.05 14.44 30.79 14.44 30.46C14.44 30.12 14.18 29.86 13.84 29.86Z" fill="#000000" fill-opacity="1.000000" fill-rule="nonzero"/>
	<path id="Vector" d="M12.43 29.86C12.09 29.86 11.82 30.12 11.82 30.46C11.82 30.79 12.09 31.05 12.43 31.05L13.84 31.05C14.18 31.05 14.44 30.79 14.44 30.46C14.44 30.12 14.18 29.86 13.84 29.86L12.43 29.86Z" stroke="#000000" stroke-opacity="1.000000" stroke-width="0.500000"/>
	<path id="Vector" d="M23.12 0.25L3.16 0.25C1.55 0.25 0.25 1.53 0.25 3.11L0.25 30.29C0.25 31.88 1.55 33.16 3.16 33.16L23.12 33.16C24.73 33.16 26.03 31.88 26.03 30.29L26.03 3.11C26.03 1.54 24.72 0.25 23.12 0.25ZM24.83 30.29C24.83 31.23 24.06 31.99 23.11 31.99L3.16 31.99C2.2 31.99 1.43 31.23 1.43 30.29L1.43 3.11C1.43 2.18 2.2 1.42 3.16 1.42L23.12 1.42C24.07 1.42 24.84 2.18 24.84 3.11L24.84 30.29L24.83 30.29Z" fill="#000000" fill-opacity="1.000000" fill-rule="nonzero"/>
	<path id="Vector" d="M3.16 0.25C1.55 0.25 0.25 1.53 0.25 3.11L0.25 30.29C0.25 31.88 1.55 33.16 3.16 33.16L23.12 33.16C24.73 33.16 26.03 31.88 26.03 30.29L26.03 3.11C26.03 1.54 24.72 0.25 23.12 0.25L3.16 0.25ZM23.11 31.99L3.16 31.99C2.2 31.99 1.43 31.23 1.43 30.29L1.43 3.11C1.43 2.18 2.2 1.42 3.16 1.42L23.12 1.42C24.07 1.42 24.84 2.18 24.84 3.11L24.84 30.29L24.83 30.29C24.83 31.23 24.06 31.99 23.11 31.99Z" stroke="#000000" stroke-opacity="1.000000" stroke-width="0.500000"/>
	<path id="Vector" d="M22.9 3.6L3.37 3.6C3.03 3.6 2.77 3.86 2.77 4.19C2.77 4.52 3.03 4.78 3.37 4.78L22.9 4.78C23.23 4.78 23.5 4.52 23.5 4.19C23.5 3.86 23.23 3.6 22.9 3.6Z" fill="#000000" fill-opacity="1.000000" fill-rule="nonzero"/>
	<path id="Vector" d="M3.37 3.6C3.03 3.6 2.77 3.86 2.77 4.19C2.77 4.52 3.03 4.78 3.37 4.78L22.9 4.78C23.23 4.78 23.5 4.52 23.5 4.19C23.5 3.86 23.23 3.6 22.9 3.6L3.37 3.6Z" stroke="#000000" stroke-opacity="1.000000" stroke-width="0.500000"/>
	<path id="Vector" d="M22.9 26.8L3.37 26.8C3.03 26.8 2.77 27.06 2.77 27.39C2.77 27.72 3.03 27.98 3.37 27.98L22.9 27.98C23.23 27.98 23.5 27.72 23.5 27.39C23.5 27.06 23.23 26.8 22.9 26.8Z" fill="#000000" fill-opacity="1.000000" fill-rule="nonzero"/>
	<path id="Vector" d="M3.37 26.8C3.03 26.8 2.77 27.06 2.77 27.39C2.77 27.72 3.03 27.98 3.37 27.98L22.9 27.98C23.23 27.98 23.5 27.72 23.5 27.39C23.5 27.06 23.23 26.8 22.9 26.8L3.37 26.8Z" stroke="#000000" stroke-opacity="1.000000" stroke-width="0.500000"/>
</svg>
