<svg width="39.164001" height="33.475220" viewBox="0 0 39.164 33.4752" fill="none" xmlns="http://www.w3.org/2000/svg" xmlns:xlink="http://www.w3.org/1999/xlink">
	<desc>
			Created with Pixso.
	</desc>
	<defs/>
	<path id="Vector" d="M35.36 0.15L3.8 0.15C1.78 0.15 0.15 1.76 0.15 3.74L0.15 22.44C0.15 24.43 1.78 26.04 3.8 26.04L14.76 26.04L14.76 29.11L13.39 29.11C12.35 29.11 11.5 29.94 11.5 30.98L11.5 31.46C11.5 32.48 12.34 33.32 13.39 33.32L26.05 33.32C27.08 33.32 27.94 32.49 27.94 31.46L27.94 30.98C27.94 29.96 27.1 29.11 26.05 29.11L24.39 29.11L24.39 26.04L35.36 26.04C37.37 26.04 39.01 24.43 39.01 22.44L39.01 3.76C39.01 1.76 37.37 0.15 35.36 0.15ZM3.8 1.58L35.36 1.58C36.57 1.58 37.55 2.56 37.55 3.74L37.55 20.47L1.6 20.47L1.6 3.76C1.6 2.56 2.58 1.58 3.8 1.58ZM26.47 30.98L26.47 31.46C26.47 31.69 26.27 31.87 26.05 31.87L13.39 31.87C13.15 31.87 12.97 31.68 12.97 31.46L12.97 30.98C12.97 30.74 13.17 30.56 13.39 30.56L15.49 30.56L23.67 30.56L26.05 30.56C26.27 30.56 26.47 30.74 26.47 30.98ZM22.94 29.13L16.22 29.13L16.22 26.05L22.94 26.05L22.94 29.13ZM35.36 24.62L23.67 24.62L15.49 24.62L3.8 24.62C2.58 24.62 1.6 23.64 1.6 22.45L1.6 21.92L37.55 21.92L37.55 22.45C37.55 23.64 36.56 24.62 35.36 24.62Z" fill="#000000" fill-opacity="1.000000" fill-rule="nonzero"/>
	<path id="Vector" d="M3.8 0.15C1.78 0.15 0.15 1.76 0.15 3.74L0.15 22.44C0.15 24.43 1.78 26.04 3.8 26.04L14.76 26.04L14.76 29.11L13.39 29.11C12.35 29.11 11.5 29.94 11.5 30.98L11.5 31.46C11.5 32.48 12.34 33.32 13.39 33.32L26.05 33.32C27.08 33.32 27.94 32.49 27.94 31.46L27.94 30.98C27.94 29.96 27.1 29.11 26.05 29.11L24.39 29.11L24.39 26.04L35.36 26.04C37.37 26.04 39.01 24.43 39.01 22.44L39.01 3.76C39.01 1.76 37.37 0.15 35.36 0.15L3.8 0.15ZM35.36 1.58C36.57 1.58 37.55 2.56 37.55 3.74L37.55 20.47L1.6 20.47L1.6 3.76C1.6 2.56 2.58 1.58 3.8 1.58L35.36 1.58ZM26.47 31.46C26.47 31.69 26.27 31.87 26.05 31.87L13.39 31.87C13.15 31.87 12.97 31.68 12.97 31.46L12.97 30.98C12.97 30.74 13.17 30.56 13.39 30.56L15.49 30.56L23.67 30.56L26.05 30.56C26.27 30.56 26.47 30.74 26.47 30.98L26.47 31.46ZM16.22 29.13L16.22 26.05L22.94 26.05L22.94 29.13L16.22 29.13ZM23.67 24.62L15.49 24.62L3.8 24.62C2.58 24.62 1.6 23.64 1.6 22.45L1.6 21.92L37.55 21.92L37.55 22.45C37.55 23.64 36.56 24.62 35.36 24.62L23.67 24.62Z" stroke="#000000" stroke-opacity="1.000000" stroke-width="0.300000"/>
</svg>
