<svg width="50.000000" height="50.000000" viewBox="0 0 50 50" fill="none" xmlns="http://www.w3.org/2000/svg" xmlns:xlink="http://www.w3.org/1999/xlink">
	<desc>
			Created with Pixso.
	</desc>
	<defs/>
	<path id="Vector" d="M50 25C50 38.8 38.8 50 25 50C11.19 50 0 38.8 0 25C0 11.19 11.19 0 25 0C38.8 0 50 11.19 50 25Z" fill="#006DBF" fill-opacity="1.000000" fill-rule="evenodd"/>
	<path id="Vector 1" d="M15.9 21.23L25.41 32.37L23.51 34L21.49 32.52L33.98 15.52L38.01 18.48L25.52 35.48Q25.35 35.71 25.13 35.9Q25.04 35.98 24.94 36.05Q24.84 36.12 24.73 36.18Q24.62 36.24 24.51 36.29Q24.4 36.33 24.28 36.37Q24.16 36.41 24.04 36.44Q23.92 36.46 23.8 36.48Q23.68 36.49 23.56 36.49Q23.43 36.5 23.31 36.49Q23.19 36.48 23.07 36.46Q22.95 36.43 22.83 36.4Q22.71 36.37 22.6 36.32Q22.48 36.28 22.37 36.22Q22.26 36.17 22.16 36.1Q22.06 36.03 21.96 35.96Q21.86 35.88 21.78 35.8Q21.69 35.71 21.61 35.62L12.09 24.48L15.9 21.23ZM12.12 24.48L12.09 24.48C11.18 23.42 11.31 21.87 12.37 20.96C13.44 20.05 14.99 20.17 15.9 21.23L15.89 21.26L12.12 24.48ZM33.98 15.54L33.98 15.52C34.81 14.39 36.35 14.15 37.47 14.98C38.6 15.81 38.84 17.35 38.01 18.48L37.98 18.48L33.98 15.54Z" fill="#FFFFFF" fill-opacity="1.000000" fill-rule="evenodd"/>
</svg>
