<svg width="212.000000" height="60.000000" viewBox="0 0 212 60" fill="none" xmlns="http://www.w3.org/2000/svg" xmlns:xlink="http://www.w3.org/1999/xlink">
	<desc>
			Created with Pixso.
	</desc>
	<defs>
		<clipPath id="clip1_650">
			<rect id="logo 2" rx="0.000000" width="203.000000" height="39.000000" transform="translate(0.500000 10.500000)" fill="white" fill-opacity="0"/>
		</clipPath>
		<linearGradient x1="15.757843" y1="24.054495" x2="45.698437" y2="24.054495" id="paint_linear_1_652_0" gradientUnits="userSpaceOnUse">
			<stop stop-color="#338ACC"/>
			<stop offset="0.175300" stop-color="#2280C8"/>
			<stop offset="0.439000" stop-color="#0F76C3"/>
			<stop offset="0.710600" stop-color="#046FC0"/>
			<stop offset="1.000000" stop-color="#006DBF"/>
		</linearGradient>
		<linearGradient x1="10.509339" y1="35.681519" x2="45.698456" y2="35.681519" id="paint_linear_1_654_0" gradientUnits="userSpaceOnUse">
			<stop stop-color="#02D2FF"/>
			<stop offset="0.029883" stop-color="#02CCFB"/>
			<stop offset="0.214300" stop-color="#01AAE5"/>
			<stop offset="0.402600" stop-color="#018FD5"/>
			<stop offset="0.594100" stop-color="#007CC9"/>
			<stop offset="0.790700" stop-color="#0071C1"/>
			<stop offset="1.000000" stop-color="#006DBF"/>
		</linearGradient>
	</defs>
	<g clip-path="url(#clip1_650)">
		<path id="Vector" d="M40.86 34.41L40.86 22.48C40.86 20.34 39.16 18.55 36.99 18.55L24.48 18.55C22.37 18.55 20.6 20.27 20.6 22.48L20.6 25.24L15.77 25.24L15.77 22.48C15.77 17.58 19.65 13.65 24.48 13.65L36.99 13.65C41.82 13.65 45.69 17.58 45.69 22.48L45.69 34.41L40.86 34.41Z" fill="url(#paint_linear_1_652_0)" fill-opacity="1.000000" fill-rule="nonzero"/>
		<path id="Vector" d="M19.85 22.27L20.67 22.27C20.74 21.65 20.94 21.03 21.21 20.48L19.85 20.48C18.42 20.48 17.06 20.82 15.84 21.44C15.77 21.79 15.77 22.13 15.77 22.55L15.77 23.24C17 22.62 18.36 22.27 19.85 22.27Z" fill="#006DBF" fill-opacity="1.000000" fill-rule="nonzero"/>
		<path id="Vector" d="M36.38 22.27L19.85 22.27C14.68 22.27 10.54 26.55 10.54 31.72L10.54 39.65C10.54 44.89 14.75 49.1 19.85 49.1L36.38 49.1C41.54 49.1 45.69 44.82 45.69 39.65L45.69 31.72C45.69 26.48 41.48 22.27 36.38 22.27ZM40.86 39.65C40.86 42.13 38.82 44.2 36.38 44.2L19.85 44.2C17.4 44.2 15.36 42.13 15.36 39.65L15.36 38.68L21.55 38.68C22.84 38.68 23.86 37.65 23.86 36.34L23.86 35.86C23.86 34.55 22.84 33.51 21.55 33.51L15.36 33.51L15.36 31.79C15.36 29.31 17.4 27.24 19.85 27.24L36.38 27.24C38.82 27.24 40.86 29.31 40.86 31.79L40.86 39.65ZM19.44 35.93C19.44 35.1 20.06 34.48 20.87 34.48C21.69 34.48 22.3 35.1 22.3 35.93C22.3 36.75 21.69 37.37 20.87 37.37C20.06 37.37 19.44 36.75 19.44 35.93Z" fill="url(#paint_linear_1_654_0)" fill-opacity="1.000000" fill-rule="nonzero"/>
		<path id="Vector" d="M12.03 21.37L12.03 16.62C12.03 16.34 11.76 16.06 11.49 16.06L4.89 16.06L4.89 10.68C4.89 10.41 5.16 10.13 5.44 10.13L10.94 10.13C12.78 10.13 14.28 11.65 14.28 13.51L14.28 22C14.28 22.27 14 22.55 13.73 22.55L11.83 22.55C11.96 22.2 12.03 21.79 12.03 21.37Z" fill="#3BAF6E" fill-opacity="1.000000" fill-rule="nonzero"/>
		<path id="Vector" d="M3.06 17.17L10.2 17.17C10.47 17.17 10.74 17.44 10.74 17.72L10.74 22.48C10.74 24.13 9.45 25.44 7.82 25.44L0.68 25.44C0.4 25.44 0.13 25.17 0.13 24.89L0.13 20.13C0.13 18.48 1.42 17.17 3.06 17.17Z" fill="#0A9B4A" fill-opacity="1.000000" fill-rule="nonzero"/>
		<path id="Vector" d="M65.14 43.24L56.78 43.24C55.48 43.24 54.87 42.62 54.87 41.31L54.87 23.37C54.87 22.82 55.01 22.34 55.35 22.06C55.62 21.79 56.1 21.58 56.64 21.58C57.18 21.58 57.66 21.72 57.93 22.06C58.2 22.41 58.41 22.82 58.41 23.37L58.41 40.2L65.07 40.2C65.62 40.2 66.02 40.34 66.36 40.62C66.64 40.89 66.77 41.24 66.77 41.72L66.77 41.79C66.77 42.2 66.64 42.48 66.3 42.82C65.96 43.1 65.55 43.24 65.14 43.24Z" fill="#166DB7" fill-opacity="1.000000" fill-rule="nonzero"/>
		<path id="Vector" d="M80.58 36.41L69.83 36.41C69.9 37.93 70.51 39.1 71.67 39.86C72.62 40.55 73.71 40.89 75 40.89C75.82 40.89 76.63 40.68 77.51 40.27C77.79 40.13 78.47 39.79 79.62 39.17C79.9 39.03 80.1 38.96 80.3 38.96C80.58 38.96 80.92 39.1 81.12 39.37C81.39 39.65 81.53 39.93 81.53 40.27C81.53 40.96 80.85 41.72 79.42 42.41C77.86 43.17 76.22 43.58 74.59 43.58C72.21 43.58 70.24 42.82 68.74 41.24C67.25 39.65 66.5 37.65 66.5 35.24C66.5 32.96 67.18 30.96 68.61 29.37C70.1 27.72 71.94 26.82 74.18 26.82C75.75 26.82 77.24 27.31 78.54 28.27C79.83 29.24 80.71 30.41 81.32 31.93C81.66 32.82 81.87 33.72 81.87 34.68C81.94 35.79 81.46 36.41 80.58 36.41ZM77.24 30.55C76.5 29.79 75.48 29.37 74.18 29.37C72.96 29.37 71.94 29.79 71.19 30.62C70.24 31.58 69.76 32.68 69.76 33.93L78.74 33.93L78.74 33.86C78.74 32.62 78.19 31.51 77.24 30.55Z" fill="#166DB7" fill-opacity="1.000000" fill-rule="nonzero"/>
		<path id="Vector" d="M105.8 43.37C104.78 43.37 104.17 42.82 104.04 41.72L101.79 26.34L97.03 42C96.76 42.89 96.15 43.31 95.2 43.31C94.24 43.31 93.63 42.89 93.36 42L88.4 26.48L88.19 28.06L86.22 41.72C86.08 42.82 85.47 43.37 84.45 43.37C83.98 43.37 83.57 43.24 83.3 42.96C83.02 42.68 82.89 42.27 82.89 41.79L82.89 41.51C82.89 41.44 82.89 41.44 82.89 41.31L85.81 23.37C85.88 22.82 86.22 22.41 86.7 22C87.17 21.65 87.65 21.44 88.19 21.44C88.74 21.44 89.28 21.58 89.76 21.93C90.23 22.27 90.5 22.68 90.71 23.24L95.13 38.06L99.48 23.17C99.82 21.93 100.64 21.37 102 21.37C102.54 21.37 103.08 21.58 103.56 21.93C104.04 22.27 104.31 22.75 104.44 23.24L107.37 41.17C107.37 41.24 107.37 41.31 107.37 41.37L107.37 41.65C107.37 42.13 107.23 42.55 106.96 42.82C106.69 43.24 106.28 43.37 105.8 43.37Z" fill="#0A9B4A" fill-opacity="1.000000" fill-rule="nonzero"/>
		<path id="Vector" d="M121.92 41.17C120.42 42.82 118.59 43.58 116.34 43.58C114.03 43.58 112.2 42.75 110.77 41.1C109.34 39.51 108.66 37.51 108.66 35.24C108.66 32.96 109.41 30.96 110.9 29.24C112.33 27.58 114.17 26.82 116.34 26.82C118.59 26.82 120.42 27.65 121.92 29.37C123.35 31.03 124.03 32.96 124.03 35.24C124.03 37.58 123.35 39.58 121.92 41.17ZM118.45 30.27C117.91 29.93 117.23 29.72 116.41 29.72C114.98 29.72 113.9 30.27 113.08 31.44C112.33 32.48 111.99 33.72 111.99 35.17C111.99 36.62 112.33 37.79 113.01 38.82C113.83 40 114.92 40.62 116.34 40.62C117.7 40.62 118.79 40.06 119.61 38.89C120.36 37.86 120.7 36.62 120.7 35.17C120.76 32.89 119.95 31.24 118.45 30.27Z" fill="#0A9B4A" fill-opacity="1.000000" fill-rule="nonzero"/>
		<path id="Vector" d="M138.31 43.37C137.83 43.37 137.42 43.24 137.15 42.89C136.81 42.48 136.67 42.06 136.67 41.44L136.67 33.24C136.67 32.06 136.34 31.17 135.66 30.41C134.98 29.65 134.02 29.31 132.94 29.31C131.78 29.31 130.89 29.65 130.22 30.41C129.53 31.17 129.2 32.06 129.2 33.24L129.2 41.44C129.2 42 129.06 42.48 128.72 42.82C128.45 43.17 128.04 43.37 127.5 43.37C127.02 43.37 126.61 43.24 126.34 42.89C126 42.48 125.86 42.06 125.86 41.44L125.86 28.89C125.86 28.34 126 27.86 126.34 27.44C126.61 27.1 127.02 26.96 127.5 26.96C128.52 26.96 129.06 27.58 129.06 28.89C129.06 28.96 129.06 28.96 129.06 29.03C130.15 27.51 131.85 26.75 134.23 26.75C136 26.75 137.42 27.24 138.44 28.27C139.46 29.31 140.01 30.68 140.01 32.41L140.01 41.44C140.01 42 139.87 42.48 139.53 42.82C139.19 43.17 138.78 43.37 138.31 43.37Z" fill="#0A9B4A" fill-opacity="1.000000" fill-rule="nonzero"/>
		<path id="Vector" d="M155.51 36.41L144.77 36.41C144.84 37.93 145.45 39.1 146.6 39.86C147.56 40.55 148.64 40.89 149.94 40.89C150.75 40.89 151.57 40.68 152.45 40.27C152.72 40.13 153.4 39.79 154.56 39.17C154.83 39.03 155.03 38.96 155.24 38.96C155.51 38.96 155.85 39.1 156.06 39.37C156.33 39.65 156.46 39.93 156.46 40.27C156.46 40.96 155.78 41.72 154.36 42.41C152.79 43.17 151.16 43.58 149.53 43.58C147.15 43.58 145.17 42.82 143.68 41.24C142.18 39.65 141.44 37.65 141.44 35.24C141.44 32.96 142.12 30.96 143.54 29.37C145.04 27.72 146.88 26.82 149.12 26.82C150.68 26.82 152.18 27.31 153.47 28.27C154.76 29.24 155.65 30.41 156.26 31.93C156.6 32.82 156.8 33.72 156.8 34.68C156.87 35.79 156.39 36.41 155.51 36.41ZM152.18 30.55C151.43 29.79 150.41 29.37 149.12 29.37C147.89 29.37 146.88 29.79 146.13 30.62C145.17 31.58 144.7 32.68 144.7 33.93L153.67 33.93L153.67 33.86C153.67 32.62 153.2 31.51 152.18 30.55Z" fill="#0A9B4A" fill-opacity="1.000000" fill-rule="nonzero"/>
		<path id="Vector" d="M171.36 29.24L163.47 48.41C163.06 49.31 162.58 49.79 161.9 49.79C161.43 49.79 161.02 49.65 160.68 49.44C160.34 49.24 160.2 48.89 160.2 48.48C160.2 48.13 160.27 47.79 160.48 47.37L162.65 42.13L157.35 29.17C157.21 28.89 157.14 28.55 157.14 28.27C157.14 27.93 157.28 27.65 157.62 27.37C157.96 27.1 158.3 26.96 158.64 26.96C159.46 26.96 160 27.37 160.34 28.13L164.42 38.06L168.3 28.13C168.64 27.31 169.18 26.89 170 26.89C170.4 26.89 170.74 27.03 171.08 27.31C171.36 27.58 171.56 27.86 171.56 28.2C171.49 28.62 171.49 28.96 171.36 29.24Z" fill="#0A9B4A" fill-opacity="1.000000" fill-rule="nonzero"/>
		<path id="Vector" d="M172.31 43.58C171.7 43.58 171.15 43.37 170.68 42.89C170.2 42.41 170 41.86 170 41.24C170 40.62 170.2 40.06 170.68 39.58C171.15 39.1 171.7 38.89 172.31 38.89C172.92 38.89 173.46 39.1 173.94 39.58C174.42 40.06 174.62 40.62 174.62 41.24C174.62 41.86 174.42 42.41 173.94 42.89C173.53 43.37 172.99 43.58 172.31 43.58Z" fill="#166DB7" fill-opacity="1.000000" fill-rule="nonzero"/>
		<path id="Vector" d="M188.63 43.58C188.08 43.58 187.54 43.17 186.86 42.41L179.79 34.34L179.79 41.51C179.79 42.06 179.65 42.55 179.31 42.89C179.04 43.24 178.63 43.37 178.09 43.37C177.61 43.37 177.2 43.24 176.93 42.89C176.59 42.55 176.46 42.06 176.46 41.51L176.46 21.86C176.46 21.31 176.59 20.82 176.93 20.48C177.2 20.13 177.61 20 178.09 20C178.63 20 179.04 20.13 179.31 20.48C179.58 20.82 179.79 21.24 179.79 21.86L179.79 34.2L186.11 28.2C186.66 27.65 187.27 27.37 187.81 27.37C188.22 27.37 188.49 27.51 188.76 27.79C189.04 28.06 189.1 28.41 189.1 28.75C189.1 29.24 188.9 29.65 188.42 30.06L183.73 34.13L189.72 41.03C189.99 41.37 190.12 41.72 190.12 42.13C190.12 42.55 189.99 42.89 189.65 43.17C189.38 43.44 189.04 43.58 188.63 43.58Z" fill="#166DB7" fill-opacity="1.000000" fill-rule="nonzero"/>
		<path id="Vector" d="M202.7 43.24L191.76 43.24C190.94 43.24 190.53 42.96 190.53 42.34C190.53 42 190.6 41.72 190.8 41.44L198.96 29.93L192.16 29.93C191.69 29.93 191.35 29.79 191.14 29.58C190.87 29.37 190.74 29.03 190.74 28.55C190.74 28.06 190.87 27.79 191.14 27.51C191.42 27.31 191.76 27.17 192.16 27.17L202.91 27.17C203.45 27.17 203.72 27.44 203.72 28C203.72 28.34 203.59 28.68 203.38 29.03L195.16 40.55L202.7 40.55C203.18 40.55 203.52 40.68 203.79 40.89C204.06 41.1 204.2 41.44 204.2 41.86C204.2 42.27 204.06 42.62 203.79 42.89C203.52 43.17 203.11 43.24 202.7 43.24Z" fill="#006DBF" fill-opacity="1.000000" fill-rule="nonzero"/>
	</g>
</svg>
